<svg width="218" height="273" xmlns="http://www.w3.org/2000/svg">
 <!-- Created with Method Draw - http://github.com/duopixel/Method-Draw/ -->
 <g>
  <title>background</title>
  <rect fill="#ffffff" id="canvas_background" height="275" width="220" y="-1" x="-1"/>
  <g display="none" overflow="visible" y="0" x="0" height="100%" width="100%" id="canvasGrid">
   <rect fill="url(#gridpattern)" stroke-width="0" y="0" x="0" height="100%" width="100%"/>
  </g>
 </g>
 <g>
  <title>Layer 1</title>
  <path id="svg_1" d="m105.143089,162.899747c-5.492764,-9.630534 -12.220637,-17.424942 -18.965738,-22.87397c-7.870381,5.588878 -17.456166,8.988627 -27.916967,8.988627c-10.467488,0 -20.067072,-3.409864 -27.92724,-8.988627c-6.745092,5.44902 -13.472907,13.243437 -18.986358,22.87397c-12.786856,22.34828 -14.200332,45.275236 -3.156421,51.223299c4.947308,2.677861 10.138254,0.678668 15.497234,-4.324628c-0.943504,5.073099 -1.502751,10.575341 -1.502751,16.333721c0,25.568502 10.244555,46.279878 22.87363,46.279878c7.606216,0 11.37679,-7.544623 13.184737,-19.091329c1.808022,11.546706 5.575077,19.091329 13.164326,19.091329c12.646101,0 22.890622,-20.711376 22.890622,-46.279878c0,-5.75838 -0.548883,-11.260622 -1.509488,-16.333721c5.376115,5.003296 10.556679,7.00249 15.514235,4.324628c11.061196,-5.948071 9.630435,-28.875019 -3.159822,-51.223299zm-46.892961,-22.604346c21.254205,0 38.483927,-16.709715 38.483927,-37.314778s-17.229722,-37.314656 -38.483927,-37.314656c-21.250786,0 -38.494283,16.70623 -38.494283,37.314656s17.243488,37.314778 38.494283,37.314778zm26.290697,-76.592167c11.105688,3.965362 4.422339,-6.32396 4.422339,-13.35308s6.854895,-15.625148 -4.422339,-12.128794c-11.836489,3.679148 -21.432613,5.701771 -21.432613,12.740852s9.596133,8.509562 21.432613,12.741023zm-26.218631,-5.00653c7.033262,0 3.104925,-3.453044 3.104925,-7.707813c0,-4.258043 3.938626,-7.701159 -3.104925,-7.701159s-3.362295,3.453069 -3.362295,7.701159c0,4.264705 -3.671076,7.707813 3.362295,7.707813zm-26.369624,5.00653c11.836498,-4.221557 21.432538,-5.705208 21.432538,-12.741023s-9.59604,-9.061704 -21.432538,-12.740852c-11.27725,-3.506322 -4.425824,5.092938 -4.425824,12.128794s-6.690178,17.311756 4.425824,13.35308z" stroke-width="1.5" stroke="#000" fill="#fff"/>
  <ellipse ry="22.5" rx="20" id="svg_2" cy="103.25" cx="58.548061" stroke-width="1.5" stroke="#000" fill="#fff"/>
  <line stroke-linecap="undefined" stroke-linejoin="undefined" id="svg_3" y2="126.75" x2="163.548061" y1="214.75" x1="108.548061" stroke-width="1.5" stroke="#000" fill="none"/>
  <ellipse ry="63.5" rx="48.5" id="svg_9" cy="64.25" cx="169.048061" stroke-width="1.5" stroke="#000" fill="#fff"/>
  <ellipse ry="5" rx="4" id="svg_11" cy="28.75" cx="199.548061" stroke-width="1.5" stroke="#000" fill="#fff"/>
  <line stroke-linecap="undefined" stroke-linejoin="undefined" id="svg_13" y2="249.75" x2="58.548061" y1="150.75" x1="59.548061" stroke-width="1.5" stroke="#000" fill="none"/>
  <ellipse ry="5" rx="3.5" id="svg_14" cy="164.75" cx="66.048061" stroke-width="1.5" stroke="#000" fill="#fff"/>
  <ellipse stroke="#000" ry="5" rx="3.5" id="svg_15" cy="164.75" cx="66.048061" stroke-width="1.5" fill="#fff"/>
 </g>
</svg>